<svg width="90" height="78" viewBox="0 0 90 78" fill="none" xmlns="http://www.w3.org/2000/svg">
<path d="M81.3804 7.71594C79.2522 5.58679 76.7254 3.8978 73.9444 2.74546C71.1633 1.59311 68.1824 1 65.1721 1C62.1617 1 59.1808 1.59311 56.3997 2.74546C53.6187 3.8978 51.0919 5.58679 48.9637 7.71594L44.547 12.1326L40.1304 7.71594C35.8317 3.41722 30.0014 1.00223 23.922 1.00223C17.8427 1.00223 12.0124 3.41722 7.71371 7.71594C3.41499 12.0147 1 17.845 1 23.9243C1 30.0036 3.41499 35.8339 7.71371 40.1326L12.1304 44.5493L44.547 76.9659L76.9637 44.5493L81.3804 40.1326C83.5095 38.0045 85.1985 35.4777 86.3509 32.6966C87.5032 29.9155 88.0963 26.9346 88.0963 23.9243C88.0963 20.9139 87.5032 17.933 86.3509 15.152C85.1985 12.3709 83.5095 9.84409 81.3804 7.71594V7.71594Z" stroke="#FF6B6B" stroke-width="2" stroke-linecap="round" stroke-linejoin="round"/>
</svg>
